{
    "asset" : {
        "generator" : "Khronos glTF Blender I/O v1.8.19",
        "version" : "2.0"
    },
    "scene" : 0,
    "scenes" : [
        {
            "name" : "Scene",
            "nodes" : [
                0
            ]
        }
    ],
    "nodes" : [
        {
            "mesh" : 0,
            "name" : "Arrow"
        }
    ],
    "materials" : [
        {
            "doubleSided" : true,
            "name" : "ArrowWood",
            "pbrMetallicRoughness" : {
                "baseColorFactor" : [
                    0.17886105179786682,
                    0.12782546877861023,
                    0.058723293244838715,
                    1
                ],
                "metallicFactor" : 0
            }
        },
        {
            "doubleSided" : true,
            "name" : "ArrowTip",
            "pbrMetallicRoughness" : {
                "baseColorFactor" : [
                    0.6038147807121277,
                    0.6038147807121277,
                    0.6038147807121277,
                    1
                ],
                "roughnessFactor" : 0.1891191452741623
            }
        },
        {
            "doubleSided" : true,
            "name" : "ArrowFeather",
            "pbrMetallicRoughness" : {
                "baseColorFactor" : [
                    0.8000000715255737,
                    0.06588460505008698,
                    0.042117889970541,
                    1
                ],
                "metallicFactor" : 0
            }
        }
    ],
    "meshes" : [
        {
            "name" : "Plane",
            "primitives" : [
                {
                    "attributes" : {
                        "POSITION" : 0,
                        "NORMAL" : 1,
                        "TEXCOORD_0" : 2
                    },
                    "indices" : 3,
                    "material" : 0
                },
                {
                    "attributes" : {
                        "POSITION" : 4,
                        "NORMAL" : 5,
                        "TEXCOORD_0" : 6
                    },
                    "indices" : 7,
                    "material" : 1
                },
                {
                    "attributes" : {
                        "POSITION" : 8,
                        "NORMAL" : 9,
                        "TEXCOORD_0" : 10
                    },
                    "indices" : 11,
                    "material" : 2
                }
            ]
        }
    ],
    "accessors" : [
        {
            "bufferView" : 0,
            "componentType" : 5126,
            "count" : 36,
            "max" : [
                0.014245426282286644,
                0.3631974458694458,
                0.016449201852083206
            ],
            "min" : [
                -0.01424542535096407,
                -0.26062068343162537,
                -0.016449198126792908
            ],
            "type" : "VEC3"
        },
        {
            "bufferView" : 1,
            "componentType" : 5126,
            "count" : 36,
            "type" : "VEC3"
        },
        {
            "bufferView" : 2,
            "componentType" : 5126,
            "count" : 36,
            "type" : "VEC2"
        },
        {
            "bufferView" : 3,
            "componentType" : 5123,
            "count" : 60,
            "type" : "SCALAR"
        },
        {
            "bufferView" : 4,
            "componentType" : 5126,
            "count" : 16,
            "max" : [
                0.0613701157271862,
                -0.2533997893333435,
                0.03167104721069336
            ],
            "min" : [
                -0.0613701157271862,
                -0.35912665724754333,
                -0.031671054661273956
            ],
            "type" : "VEC3"
        },
        {
            "bufferView" : 5,
            "componentType" : 5126,
            "count" : 16,
            "type" : "VEC3"
        },
        {
            "bufferView" : 6,
            "componentType" : 5126,
            "count" : 16,
            "type" : "VEC2"
        },
        {
            "bufferView" : 7,
            "componentType" : 5123,
            "count" : 18,
            "type" : "SCALAR"
        },
        {
            "bufferView" : 8,
            "componentType" : 5126,
            "count" : 80,
            "max" : [
                0.054984770715236664,
                0.42350631952285767,
                0.05507750064134598
            ],
            "min" : [
                -0.054984770715236664,
                0.2654026746749878,
                -0.05489204078912735
            ],
            "type" : "VEC3"
        },
        {
            "bufferView" : 9,
            "componentType" : 5126,
            "count" : 80,
            "type" : "VEC3"
        },
        {
            "bufferView" : 10,
            "componentType" : 5126,
            "count" : 80,
            "type" : "VEC2"
        },
        {
            "bufferView" : 11,
            "componentType" : 5123,
            "count" : 120,
            "type" : "SCALAR"
        }
    ],
    "bufferViews" : [
        {
            "buffer" : 0,
            "byteLength" : 432,
            "byteOffset" : 0
        },
        {
            "buffer" : 0,
            "byteLength" : 432,
            "byteOffset" : 432
        },
        {
            "buffer" : 0,
            "byteLength" : 288,
            "byteOffset" : 864
        },
        {
            "buffer" : 0,
            "byteLength" : 120,
            "byteOffset" : 1152
        },
        {
            "buffer" : 0,
            "byteLength" : 192,
            "byteOffset" : 1272
        },
        {
            "buffer" : 0,
            "byteLength" : 192,
            "byteOffset" : 1464
        },
        {
            "buffer" : 0,
            "byteLength" : 128,
            "byteOffset" : 1656
        },
        {
            "buffer" : 0,
            "byteLength" : 36,
            "byteOffset" : 1784
        },
        {
            "buffer" : 0,
            "byteLength" : 960,
            "byteOffset" : 1820
        },
        {
            "buffer" : 0,
            "byteLength" : 960,
            "byteOffset" : 2780
        },
        {
            "buffer" : 0,
            "byteLength" : 640,
            "byteOffset" : 3740
        },
        {
            "buffer" : 0,
            "byteLength" : 240,
            "byteOffset" : 4380
        }
    ],
    "buffers" : [
        {
            "byteLength" : 4620,
            "uri" : "Arrow.bin"
        }
    ]
}
