{
    "asset" : {
        "generator" : "Khronos glTF Blender I/O v1.8.19",
        "version" : "2.0"
    },
    "scene" : 0,
    "scenes" : [
        {
            "name" : "Scene",
            "nodes" : [
                0,
                1,
                2,
                3,
                4
            ]
        }
    ],
    "nodes" : [
        {
            "mesh" : 0,
            "name" : "Base",
            "scale" : [
                2,
                1,
                2
            ],
            "translation" : [
                0,
                1,
                0
            ]
        },
        {
            "mesh" : 1,
            "name" : "Pillars",
            "scale" : [
                0.48331040143966675,
                0.48331040143966675,
                0.48331040143966675
            ],
            "translation" : [
                2,
                0.5,
                -2
            ]
        },
        {
            "mesh" : 2,
            "name" : "Stairs"
        },
        {
            "mesh" : 3,
            "name" : "FireBowl",
            "translation" : [
                0,
                2.1054160594940186,
                0
            ]
        },
        {
            "mesh" : 4,
            "name" : "FireBowlHolder"
        }
    ],
    "materials" : [
        {
            "doubleSided" : true,
            "name" : "FirepitStoneOrange",
            "pbrMetallicRoughness" : {
                "baseColorFactor" : [
                    0.21402838826179504,
                    0.16158775985240936,
                    0.09349045902490616,
                    1
                ],
                "metallicFactor" : 0,
                "roughnessFactor" : 0.5
            }
        },
        {
            "doubleSided" : true,
            "name" : "Gold",
            "pbrMetallicRoughness" : {
                "baseColorFactor" : [
                    0.8000000715255737,
                    0.7372741103172302,
                    0.121582992374897,
                    1
                ],
                "roughnessFactor" : 0.1717948615550995
            }
        },
        {
            "doubleSided" : true,
            "name" : "FirepitStoneBlue",
            "pbrMetallicRoughness" : {
                "baseColorFactor" : [
                    0.07729675620794296,
                    0.08306442946195602,
                    0.10244732350111008,
                    1
                ],
                "metallicFactor" : 0,
                "roughnessFactor" : 0.5
            }
        },
        {
            "doubleSided" : true,
            "name" : "FireBowl",
            "pbrMetallicRoughness" : {
                "baseColorFactor" : [
                    0.4019685983657837,
                    0.4019685983657837,
                    0.4019685983657837,
                    1
                ],
                "roughnessFactor" : 0.31025639176368713
            }
        }
    ],
    "meshes" : [
        {
            "name" : "Cube",
            "primitives" : [
                {
                    "attributes" : {
                        "POSITION" : 0,
                        "NORMAL" : 1,
                        "TEXCOORD_0" : 2
                    },
                    "indices" : 3,
                    "material" : 0
                },
                {
                    "attributes" : {
                        "POSITION" : 4,
                        "NORMAL" : 5,
                        "TEXCOORD_0" : 6
                    },
                    "indices" : 7,
                    "material" : 1
                },
                {
                    "attributes" : {
                        "POSITION" : 8,
                        "NORMAL" : 9,
                        "TEXCOORD_0" : 10
                    },
                    "indices" : 11,
                    "material" : 2
                }
            ]
        },
        {
            "name" : "Cube.001",
            "primitives" : [
                {
                    "attributes" : {
                        "POSITION" : 12,
                        "NORMAL" : 13,
                        "TEXCOORD_0" : 14
                    },
                    "indices" : 15,
                    "material" : 2
                },
                {
                    "attributes" : {
                        "POSITION" : 16,
                        "NORMAL" : 17,
                        "TEXCOORD_0" : 18
                    },
                    "indices" : 19,
                    "material" : 1
                },
                {
                    "attributes" : {
                        "POSITION" : 20,
                        "NORMAL" : 21,
                        "TEXCOORD_0" : 22
                    },
                    "indices" : 23,
                    "material" : 0
                }
            ]
        },
        {
            "name" : "Cube.002",
            "primitives" : [
                {
                    "attributes" : {
                        "POSITION" : 24,
                        "NORMAL" : 25,
                        "TEXCOORD_0" : 26
                    },
                    "indices" : 27,
                    "material" : 2
                },
                {
                    "attributes" : {
                        "POSITION" : 28,
                        "NORMAL" : 29,
                        "TEXCOORD_0" : 30
                    },
                    "indices" : 31,
                    "material" : 0
                }
            ]
        },
        {
            "name" : "Sphere",
            "primitives" : [
                {
                    "attributes" : {
                        "POSITION" : 32,
                        "NORMAL" : 33,
                        "TEXCOORD_0" : 34
                    },
                    "indices" : 35,
                    "material" : 3
                }
            ]
        },
        {
            "name" : "BezierCurve",
            "primitives" : [
                {
                    "attributes" : {
                        "POSITION" : 36,
                        "NORMAL" : 37,
                        "TEXCOORD_0" : 38
                    },
                    "indices" : 39,
                    "material" : 3
                }
            ]
        }
    ],
    "accessors" : [
        {
            "bufferView" : 0,
            "componentType" : 5126,
            "count" : 266,
            "max" : [
                1,
                -0.12683288753032684,
                1
            ],
            "min" : [
                -1,
                -1,
                -1
            ],
            "type" : "VEC3"
        },
        {
            "bufferView" : 1,
            "componentType" : 5126,
            "count" : 266,
            "type" : "VEC3"
        },
        {
            "bufferView" : 2,
            "componentType" : 5126,
            "count" : 266,
            "type" : "VEC2"
        },
        {
            "bufferView" : 3,
            "componentType" : 5123,
            "count" : 432,
            "type" : "SCALAR"
        },
        {
            "bufferView" : 4,
            "componentType" : 5126,
            "count" : 142,
            "max" : [
                0.9795427918434143,
                -0.12683288753032684,
                0.7017689943313599
            ],
            "min" : [
                -0.9723958373069763,
                -0.9957166314125061,
                -0.7017689943313599
            ],
            "type" : "VEC3"
        },
        {
            "bufferView" : 5,
            "componentType" : 5126,
            "count" : 142,
            "type" : "VEC3"
        },
        {
            "bufferView" : 6,
            "componentType" : 5126,
            "count" : 142,
            "type" : "VEC2"
        },
        {
            "bufferView" : 7,
            "componentType" : 5123,
            "count" : 240,
            "type" : "SCALAR"
        },
        {
            "bufferView" : 8,
            "componentType" : 5126,
            "count" : 24,
            "max" : [
                1,
                -0.12683288753032684,
                0.3133287727832794
            ],
            "min" : [
                -1,
                -0.9900000095367432,
                -0.3133287727832794
            ],
            "type" : "VEC3"
        },
        {
            "bufferView" : 9,
            "componentType" : 5126,
            "count" : 24,
            "type" : "VEC3"
        },
        {
            "bufferView" : 10,
            "componentType" : 5126,
            "count" : 24,
            "type" : "VEC2"
        },
        {
            "bufferView" : 11,
            "componentType" : 5123,
            "count" : 36,
            "type" : "SCALAR"
        },
        {
            "bufferView" : 12,
            "componentType" : 5126,
            "count" : 144,
            "max" : [
                1.1145647764205933,
                0.4657207131385803,
                9.390820503234863
            ],
            "min" : [
                -9.39082145690918,
                -1.138086199760437,
                -1.1145647764205933
            ],
            "type" : "VEC3"
        },
        {
            "bufferView" : 13,
            "componentType" : 5126,
            "count" : 144,
            "type" : "VEC3"
        },
        {
            "bufferView" : 14,
            "componentType" : 5126,
            "count" : 144,
            "type" : "VEC2"
        },
        {
            "bufferView" : 15,
            "componentType" : 5123,
            "count" : 216,
            "type" : "SCALAR"
        },
        {
            "bufferView" : 16,
            "componentType" : 5126,
            "count" : 328,
            "max" : [
                0.7480061650276184,
                7.283440113067627,
                9.024261474609375
            ],
            "min" : [
                -9.024262428283691,
                1.8541682958602905,
                -0.7480061650276184
            ],
            "type" : "VEC3"
        },
        {
            "bufferView" : 17,
            "componentType" : 5126,
            "count" : 328,
            "type" : "VEC3"
        },
        {
            "bufferView" : 18,
            "componentType" : 5126,
            "count" : 328,
            "type" : "VEC2"
        },
        {
            "bufferView" : 19,
            "componentType" : 5123,
            "count" : 504,
            "type" : "SCALAR"
        },
        {
            "bufferView" : 20,
            "componentType" : 5126,
            "count" : 192,
            "max" : [
                0.8740031719207764,
                7.063335418701172,
                9.150259017944336
            ],
            "min" : [
                -9.150259971618652,
                0.46572059392929077,
                -0.8740031719207764
            ],
            "type" : "VEC3"
        },
        {
            "bufferView" : 21,
            "componentType" : 5126,
            "count" : 192,
            "type" : "VEC3"
        },
        {
            "bufferView" : 22,
            "componentType" : 5126,
            "count" : 192,
            "type" : "VEC2"
        },
        {
            "bufferView" : 23,
            "componentType" : 5123,
            "count" : 288,
            "type" : "SCALAR"
        },
        {
            "bufferView" : 24,
            "componentType" : 5126,
            "count" : 374,
            "max" : [
                2.777111053466797,
                0.7356411218643188,
                0.6139845848083496
            ],
            "min" : [
                -2.777111053466797,
                -0.27920639514923096,
                -0.6139843463897705
            ],
            "type" : "VEC3"
        },
        {
            "bufferView" : 25,
            "componentType" : 5126,
            "count" : 374,
            "type" : "VEC3"
        },
        {
            "bufferView" : 26,
            "componentType" : 5126,
            "count" : 374,
            "type" : "VEC2"
        },
        {
            "bufferView" : 27,
            "componentType" : 5123,
            "count" : 720,
            "type" : "SCALAR"
        },
        {
            "bufferView" : 28,
            "componentType" : 5126,
            "count" : 388,
            "max" : [
                0.6139847040176392,
                0.7356411218643188,
                2.777111053466797
            ],
            "min" : [
                -0.6139844655990601,
                -0.27920639514923096,
                -2.777111053466797
            ],
            "type" : "VEC3"
        },
        {
            "bufferView" : 29,
            "componentType" : 5126,
            "count" : 388,
            "type" : "VEC3"
        },
        {
            "bufferView" : 30,
            "componentType" : 5126,
            "count" : 388,
            "type" : "VEC2"
        },
        {
            "bufferView" : 31,
            "componentType" : 5123,
            "count" : 720,
            "type" : "SCALAR"
        },
        {
            "bufferView" : 32,
            "componentType" : 5126,
            "count" : 592,
            "max" : [
                0.7465178370475769,
                -0.40086808800697327,
                0.7465178370475769
            ],
            "min" : [
                -0.7465175986289978,
                -0.8716856241226196,
                -0.7465174198150635
            ],
            "type" : "VEC3"
        },
        {
            "bufferView" : 33,
            "componentType" : 5126,
            "count" : 592,
            "type" : "VEC3"
        },
        {
            "bufferView" : 34,
            "componentType" : 5126,
            "count" : 592,
            "type" : "VEC2"
        },
        {
            "bufferView" : 35,
            "componentType" : 5123,
            "count" : 2688,
            "type" : "SCALAR"
        },
        {
            "bufferView" : 36,
            "componentType" : 5126,
            "count" : 816,
            "max" : [
                0.6109281182289124,
                1.3824999332427979,
                0.6109281182289124
            ],
            "min" : [
                -0.6109281182289124,
                0.8225114345550537,
                -0.6109281182289124
            ],
            "type" : "VEC3"
        },
        {
            "bufferView" : 37,
            "componentType" : 5126,
            "count" : 816,
            "type" : "VEC3"
        },
        {
            "bufferView" : 38,
            "componentType" : 5126,
            "count" : 816,
            "type" : "VEC2"
        },
        {
            "bufferView" : 39,
            "componentType" : 5123,
            "count" : 3408,
            "type" : "SCALAR"
        }
    ],
    "bufferViews" : [
        {
            "buffer" : 0,
            "byteLength" : 3192,
            "byteOffset" : 0
        },
        {
            "buffer" : 0,
            "byteLength" : 3192,
            "byteOffset" : 3192
        },
        {
            "buffer" : 0,
            "byteLength" : 2128,
            "byteOffset" : 6384
        },
        {
            "buffer" : 0,
            "byteLength" : 864,
            "byteOffset" : 8512
        },
        {
            "buffer" : 0,
            "byteLength" : 1704,
            "byteOffset" : 9376
        },
        {
            "buffer" : 0,
            "byteLength" : 1704,
            "byteOffset" : 11080
        },
        {
            "buffer" : 0,
            "byteLength" : 1136,
            "byteOffset" : 12784
        },
        {
            "buffer" : 0,
            "byteLength" : 480,
            "byteOffset" : 13920
        },
        {
            "buffer" : 0,
            "byteLength" : 288,
            "byteOffset" : 14400
        },
        {
            "buffer" : 0,
            "byteLength" : 288,
            "byteOffset" : 14688
        },
        {
            "buffer" : 0,
            "byteLength" : 192,
            "byteOffset" : 14976
        },
        {
            "buffer" : 0,
            "byteLength" : 72,
            "byteOffset" : 15168
        },
        {
            "buffer" : 0,
            "byteLength" : 1728,
            "byteOffset" : 15240
        },
        {
            "buffer" : 0,
            "byteLength" : 1728,
            "byteOffset" : 16968
        },
        {
            "buffer" : 0,
            "byteLength" : 1152,
            "byteOffset" : 18696
        },
        {
            "buffer" : 0,
            "byteLength" : 432,
            "byteOffset" : 19848
        },
        {
            "buffer" : 0,
            "byteLength" : 3936,
            "byteOffset" : 20280
        },
        {
            "buffer" : 0,
            "byteLength" : 3936,
            "byteOffset" : 24216
        },
        {
            "buffer" : 0,
            "byteLength" : 2624,
            "byteOffset" : 28152
        },
        {
            "buffer" : 0,
            "byteLength" : 1008,
            "byteOffset" : 30776
        },
        {
            "buffer" : 0,
            "byteLength" : 2304,
            "byteOffset" : 31784
        },
        {
            "buffer" : 0,
            "byteLength" : 2304,
            "byteOffset" : 34088
        },
        {
            "buffer" : 0,
            "byteLength" : 1536,
            "byteOffset" : 36392
        },
        {
            "buffer" : 0,
            "byteLength" : 576,
            "byteOffset" : 37928
        },
        {
            "buffer" : 0,
            "byteLength" : 4488,
            "byteOffset" : 38504
        },
        {
            "buffer" : 0,
            "byteLength" : 4488,
            "byteOffset" : 42992
        },
        {
            "buffer" : 0,
            "byteLength" : 2992,
            "byteOffset" : 47480
        },
        {
            "buffer" : 0,
            "byteLength" : 1440,
            "byteOffset" : 50472
        },
        {
            "buffer" : 0,
            "byteLength" : 4656,
            "byteOffset" : 51912
        },
        {
            "buffer" : 0,
            "byteLength" : 4656,
            "byteOffset" : 56568
        },
        {
            "buffer" : 0,
            "byteLength" : 3104,
            "byteOffset" : 61224
        },
        {
            "buffer" : 0,
            "byteLength" : 1440,
            "byteOffset" : 64328
        },
        {
            "buffer" : 0,
            "byteLength" : 7104,
            "byteOffset" : 65768
        },
        {
            "buffer" : 0,
            "byteLength" : 7104,
            "byteOffset" : 72872
        },
        {
            "buffer" : 0,
            "byteLength" : 4736,
            "byteOffset" : 79976
        },
        {
            "buffer" : 0,
            "byteLength" : 5376,
            "byteOffset" : 84712
        },
        {
            "buffer" : 0,
            "byteLength" : 9792,
            "byteOffset" : 90088
        },
        {
            "buffer" : 0,
            "byteLength" : 9792,
            "byteOffset" : 99880
        },
        {
            "buffer" : 0,
            "byteLength" : 6528,
            "byteOffset" : 109672
        },
        {
            "buffer" : 0,
            "byteLength" : 6816,
            "byteOffset" : 116200
        }
    ],
    "buffers" : [
        {
            "byteLength" : 123016,
            "uri" : "Firepit.bin"
        }
    ]
}
