{
    "asset" : {
        "generator" : "Khronos glTF Blender I/O v1.8.19",
        "version" : "2.0"
    },
    "scene" : 0,
    "scenes" : [
        {
            "name" : "Scene",
            "nodes" : [
                0
            ]
        }
    ],
    "nodes" : [
        {
            "mesh" : 0,
            "name" : "tisch.001",
            "rotation" : [
                0,
                0.7299930453300476,
                0,
                0.6834545731544495
            ],
            "scale" : [
                1.0052367448806763,
                1,
                1
            ],
            "translation" : [
                0.620557963848114,
                1,
                0.4585896134376526
            ]
        }
    ],
    "materials" : [
        {
            "doubleSided" : true,
            "name" : "Material.002",
            "normalTexture" : {
                "index" : 0
            },
            "pbrMetallicRoughness" : {
                "baseColorTexture" : {
                    "index" : 1
                },
                "metallicFactor" : 0,
                "metallicRoughnessTexture" : {
                    "index" : 2
                }
            }
        }
    ],
    "meshes" : [
        {
            "name" : "Cube.008",
            "primitives" : [
                {
                    "attributes" : {
                        "POSITION" : 0,
                        "NORMAL" : 1,
                        "TEXCOORD_0" : 2
                    },
                    "indices" : 3,
                    "material" : 0
                },
                {
                    "attributes" : {
                        "POSITION" : 4,
                        "NORMAL" : 5,
                        "TEXCOORD_0" : 6
                    },
                    "indices" : 7,
                    "material" : 0
                }
            ]
        }
    ],
    "textures" : [
        {
            "sampler" : 0,
            "source" : 0
        },
        {
            "sampler" : 0,
            "source" : 1
        },
        {
            "sampler" : 0,
            "source" : 2
        }
    ],
    "images" : [
        {
            "mimeType" : "image/png",
            "name" : "TexturesCom_Grout_1K_normal.tif",
            "uri" : "TexturesCom_Grout_1K_normal_tif.png"
        },
        {
            "mimeType" : "image/png",
            "name" : "TexturesCom_Grout_1K_albedo.tif",
            "uri" : "TexturesCom_Grout_1K_albedo_tif.png"
        },
        {
            "mimeType" : "image/png",
            "name" : "TexturesCom_Grout_1K_roughness.tif",
            "uri" : "TexturesCom_Grout_1K_roughness_tif.png"
        }
    ],
    "accessors" : [
        {
            "bufferView" : 0,
            "componentType" : 5126,
            "count" : 285,
            "max" : [
                0.9947905540466309,
                -0.29426872730255127,
                0.5000001192092896
            ],
            "min" : [
                -0.9947905540466309,
                -0.9999999403953552,
                -0.5000001192092896
            ],
            "type" : "VEC3"
        },
        {
            "bufferView" : 1,
            "componentType" : 5126,
            "count" : 285,
            "type" : "VEC3"
        },
        {
            "bufferView" : 2,
            "componentType" : 5126,
            "count" : 285,
            "type" : "VEC2"
        },
        {
            "bufferView" : 3,
            "componentType" : 5123,
            "count" : 477,
            "type" : "SCALAR"
        },
        {
            "bufferView" : 4,
            "componentType" : 5126,
            "count" : 232,
            "max" : [
                0.9947905540466309,
                -0.29426872730255127,
                0.5000001788139343
            ],
            "min" : [
                -0.9947905540466309,
                -0.3461253345012665,
                -0.5000001788139343
            ],
            "type" : "VEC3"
        },
        {
            "bufferView" : 5,
            "componentType" : 5126,
            "count" : 232,
            "type" : "VEC3"
        },
        {
            "bufferView" : 6,
            "componentType" : 5126,
            "count" : 232,
            "type" : "VEC2"
        },
        {
            "bufferView" : 7,
            "componentType" : 5123,
            "count" : 417,
            "type" : "SCALAR"
        }
    ],
    "bufferViews" : [
        {
            "buffer" : 0,
            "byteLength" : 3420,
            "byteOffset" : 0
        },
        {
            "buffer" : 0,
            "byteLength" : 3420,
            "byteOffset" : 3420
        },
        {
            "buffer" : 0,
            "byteLength" : 2280,
            "byteOffset" : 6840
        },
        {
            "buffer" : 0,
            "byteLength" : 954,
            "byteOffset" : 9120
        },
        {
            "buffer" : 0,
            "byteLength" : 2784,
            "byteOffset" : 10076
        },
        {
            "buffer" : 0,
            "byteLength" : 2784,
            "byteOffset" : 12860
        },
        {
            "buffer" : 0,
            "byteLength" : 1856,
            "byteOffset" : 15644
        },
        {
            "buffer" : 0,
            "byteLength" : 834,
            "byteOffset" : 17500
        }
    ],
    "samplers" : [
        {
            "magFilter" : 9729,
            "minFilter" : 9987
        }
    ],
    "buffers" : [
        {
            "byteLength" : 18336,
            "uri" : "table.bin"
        }
    ]
}
